<svg xmlns="http://www.w3.org/2000/svg" xmlns:xlink="http://www.w3.org/1999/xlink" contentStyleType="text/css" data-diagram-type="CLASS" height="1014px" preserveAspectRatio="none" style="width:959px;height:1014px;background:#FFFFFF;" version="1.1" viewBox="0 0 959 1014" width="959px" zoomAndPan="magnify"><defs/><g><!--class USERS--><g class="entity" data-entity="USERS" data-source-line="4" data-uid="ent0002" id="entity_USERS"><rect fill="#F1F1F1" height="156.375" rx="2.5" ry="2.5" style="stroke:#181818;stroke-width:0.5;" width="201.4375" x="248" y="7"/><text fill="#000000" font-family="sans-serif" font-size="14" lengthAdjust="spacing" textLength="46.5938" x="325.4219" y="24.9951">USERS</text><line style="stroke:#181818;stroke-width:0.5;" x1="249" x2="448.4375" y1="33.2969" y2="33.2969"/><ellipse cx="259" cy="46.9453" fill="none" rx="3" ry="3" style="stroke:#038048;stroke-width:1;"/><text fill="#000000" font-family="sans-serif" font-size="14" lengthAdjust="spacing" textLength="113.333" x="268" y="50.292">id : BIGINT &#171;PK&#187;</text><line style="stroke:#181818;stroke-width:1;" x1="249" x2="448.4375" y1="57.5938" y2="57.5938"/><text fill="#000000" font-family="sans-serif" font-size="14" lengthAdjust="spacing" textLength="161.7246" x="254" y="74.5889">email : VARCHAR &#171;UK&#187;</text><text fill="#000000" font-family="sans-serif" font-size="14" lengthAdjust="spacing" textLength="189.4375" x="254" y="90.8857">password_hash : VARCHAR</text><text fill="#000000" font-family="sans-serif" font-size="14" lengthAdjust="spacing" textLength="82.0859" x="254" y="107.1826">role : ENUM</text><text fill="#000000" font-family="sans-serif" font-size="14" lengthAdjust="spacing" textLength="129.2129" x="254" y="123.4795">is_active : TINYINT</text><text fill="#000000" font-family="sans-serif" font-size="14" lengthAdjust="spacing" textLength="159.6807" x="254" y="139.7764">created_at : DATETIME</text><text fill="#000000" font-family="sans-serif" font-size="14" lengthAdjust="spacing" textLength="172.4023" x="254" y="156.0732">last_login_at : DATETIME</text></g><!--class VOLUNTEER_PROFILES--><g class="entity" data-entity="VOLUNTEER_PROFILES" data-source-line="15" data-uid="ent0003" id="entity_VOLUNTEER_PROFILES"><rect fill="#F1F1F1" height="156.375" rx="2.5" ry="2.5" style="stroke:#181818;stroke-width:0.5;" width="203.0029" x="7" y="272"/><text fill="#000000" font-family="sans-serif" font-size="14" lengthAdjust="spacing" textLength="158.9902" x="29.0063" y="289.9951">VOLUNTEER_PROFILES</text><line style="stroke:#181818;stroke-width:0.5;" x1="8" x2="209.0029" y1="298.2969" y2="298.2969"/><ellipse cx="18" cy="311.9453" fill="none" rx="3" ry="3" style="stroke:#038048;stroke-width:1;"/><text fill="#000000" font-family="sans-serif" font-size="14" lengthAdjust="spacing" textLength="177.0029" x="27" y="315.292">user_id : BIGINT &#171;PK, FK&#187;</text><line style="stroke:#181818;stroke-width:1;" x1="8" x2="209.0029" y1="322.5938" y2="322.5938"/><text fill="#000000" font-family="sans-serif" font-size="14" lengthAdjust="spacing" textLength="150.3906" x="13" y="339.5889">full_name : VARCHAR</text><text fill="#000000" font-family="sans-serif" font-size="14" lengthAdjust="spacing" textLength="122.835" x="13" y="355.8857">birth_date : DATE</text><text fill="#000000" font-family="sans-serif" font-size="14" lengthAdjust="spacing" textLength="107.4678" x="13" y="372.1826">city : VARCHAR</text><text fill="#000000" font-family="sans-serif" font-size="14" lengthAdjust="spacing" textLength="125.918" x="13" y="388.4795">phone : VARCHAR</text><text fill="#000000" font-family="sans-serif" font-size="14" lengthAdjust="spacing" textLength="169.8389" x="13" y="404.7764">email_public : VARCHAR</text><text fill="#000000" font-family="sans-serif" font-size="14" lengthAdjust="spacing" textLength="164.2607" x="13" y="421.0732">updated_at : DATETIME</text></g><!--class ORGANIZER_PROFILES--><g class="entity" data-entity="ORGANIZER_PROFILES" data-source-line="26" data-uid="ent0004" id="entity_ORGANIZER_PROFILES"><rect fill="#F1F1F1" height="172.6719" rx="2.5" ry="2.5" style="stroke:#181818;stroke-width:0.5;" width="203.0029" x="487" y="263.5"/><text fill="#000000" font-family="sans-serif" font-size="14" lengthAdjust="spacing" textLength="157.8418" x="509.5806" y="281.4951">ORGANIZER_PROFILES</text><line style="stroke:#181818;stroke-width:0.5;" x1="488" x2="689.0029" y1="289.7969" y2="289.7969"/><ellipse cx="498" cy="303.4453" fill="none" rx="3" ry="3" style="stroke:#038048;stroke-width:1;"/><text fill="#000000" font-family="sans-serif" font-size="14" lengthAdjust="spacing" textLength="177.0029" x="507" y="306.792">user_id : BIGINT &#171;PK, FK&#187;</text><line style="stroke:#181818;stroke-width:1;" x1="488" x2="689.0029" y1="314.0938" y2="314.0938"/><text fill="#000000" font-family="sans-serif" font-size="14" lengthAdjust="spacing" textLength="152.0176" x="493" y="331.0889">org_name : VARCHAR</text><text fill="#000000" font-family="sans-serif" font-size="14" lengthAdjust="spacing" textLength="103.7422" x="493" y="347.3857">inn : VARCHAR</text><text fill="#000000" font-family="sans-serif" font-size="14" lengthAdjust="spacing" textLength="107.9873" x="493" y="363.6826">kpp : VARCHAR</text><text fill="#000000" font-family="sans-serif" font-size="14" lengthAdjust="spacing" textLength="178.2744" x="493" y="379.9795">legal_address : VARCHAR</text><text fill="#000000" font-family="sans-serif" font-size="14" lengthAdjust="spacing" textLength="185.3086" x="493" y="396.2764">contact_phone : VARCHAR</text><text fill="#000000" font-family="sans-serif" font-size="14" lengthAdjust="spacing" textLength="180.1064" x="493" y="412.5732">contact_email : VARCHAR</text><text fill="#000000" font-family="sans-serif" font-size="14" lengthAdjust="spacing" textLength="164.2607" x="493" y="428.8701">updated_at : DATETIME</text></g><!--class EVENT_CATEGORIES--><g class="entity" data-entity="EVENT_CATEGORIES" data-source-line="38" data-uid="ent0005" id="entity_EVENT_CATEGORIES"><rect fill="#F1F1F1" height="74.8906" rx="2.5" ry="2.5" style="stroke:#181818;stroke-width:0.5;" width="174.8184" x="738" y="47.5"/><text fill="#000000" font-family="sans-serif" font-size="14" lengthAdjust="spacing" textLength="143.5" x="753.6592" y="65.4951">EVENT_CATEGORIES</text><line style="stroke:#181818;stroke-width:0.5;" x1="739" x2="911.8184" y1="73.7969" y2="73.7969"/><ellipse cx="749" cy="87.4453" fill="none" rx="3" ry="3" style="stroke:#038048;stroke-width:1;"/><text fill="#000000" font-family="sans-serif" font-size="14" lengthAdjust="spacing" textLength="88.751" x="758" y="90.792">id : INT &#171;PK&#187;</text><line style="stroke:#181818;stroke-width:1;" x1="739" x2="911.8184" y1="98.0938" y2="98.0938"/><text fill="#000000" font-family="sans-serif" font-size="14" lengthAdjust="spacing" textLength="162.8184" x="744" y="115.0889">name : VARCHAR &#171;UK&#187;</text></g><!--class EVENTS--><g class="entity" data-entity="EVENTS" data-source-line="44" data-uid="ent0006" id="entity_EVENTS"><rect fill="#F1F1F1" height="254.1563" rx="2.5" ry="2.5" style="stroke:#181818;stroke-width:0.5;" width="199.9678" x="725.5" y="223"/><text fill="#000000" font-family="sans-serif" font-size="14" lengthAdjust="spacing" textLength="55.1797" x="797.894" y="240.9951">EVENTS</text><line style="stroke:#181818;stroke-width:0.5;" x1="726.5" x2="924.4678" y1="249.2969" y2="249.2969"/><ellipse cx="736.5" cy="262.9453" fill="none" rx="3" ry="3" style="stroke:#038048;stroke-width:1;"/><text fill="#000000" font-family="sans-serif" font-size="14" lengthAdjust="spacing" textLength="113.333" x="745.5" y="266.292">id : BIGINT &#171;PK&#187;</text><line style="stroke:#181818;stroke-width:1;" x1="726.5" x2="924.4678" y1="273.5938" y2="273.5938"/><text fill="#000000" font-family="sans-serif" font-size="14" lengthAdjust="spacing" textLength="157.2334" x="731.5" y="290.5889">category_id : INT &#171;FK&#187;</text><text fill="#000000" font-family="sans-serif" font-size="14" lengthAdjust="spacing" textLength="177.9736" x="731.5" y="306.8857">created_by : BIGINT &#171;FK&#187;</text><text fill="#000000" font-family="sans-serif" font-size="14" lengthAdjust="spacing" textLength="109.4775" x="731.5" y="323.1826">title : VARCHAR</text><text fill="#000000" font-family="sans-serif" font-size="14" lengthAdjust="spacing" textLength="126.998" x="731.5" y="339.4795">description : TEXT</text><text fill="#000000" font-family="sans-serif" font-size="14" lengthAdjust="spacing" textLength="107.4678" x="731.5" y="355.7764">city : VARCHAR</text><text fill="#000000" font-family="sans-serif" font-size="14" lengthAdjust="spacing" textLength="137.6553" x="731.5" y="372.0732">location : VARCHAR</text><text fill="#000000" font-family="sans-serif" font-size="14" lengthAdjust="spacing" textLength="122.5479" x="731.5" y="388.3701">start_date : DATE</text><text fill="#000000" font-family="sans-serif" font-size="14" lengthAdjust="spacing" textLength="116.3135" x="731.5" y="404.667">end_date : DATE</text><text fill="#000000" font-family="sans-serif" font-size="14" lengthAdjust="spacing" textLength="177.2969" x="731.5" y="420.9639">required_volunteers : INT</text><text fill="#000000" font-family="sans-serif" font-size="14" lengthAdjust="spacing" textLength="187.9678" x="731.5" y="437.2607">recruitment_status : ENUM</text><text fill="#000000" font-family="sans-serif" font-size="14" lengthAdjust="spacing" textLength="159.6807" x="731.5" y="453.5576">created_at : DATETIME</text><text fill="#000000" font-family="sans-serif" font-size="14" lengthAdjust="spacing" textLength="164.2607" x="731.5" y="469.8545">updated_at : DATETIME</text></g><!--class EVENT_ORGANIZERS--><g class="entity" data-entity="EVENT_ORGANIZERS" data-source-line="61" data-uid="ent0007" id="entity_EVENT_ORGANIZERS"><rect fill="#F1F1F1" height="107.4844" rx="2.5" ry="2.5" style="stroke:#181818;stroke-width:0.5;" width="276.2705" x="151.5" y="578"/><text fill="#000000" font-family="sans-serif" font-size="14" lengthAdjust="spacing" textLength="146.1182" x="216.5762" y="595.9951">EVENT_ORGANIZERS</text><line style="stroke:#181818;stroke-width:0.5;" x1="152.5" x2="426.7705" y1="604.2969" y2="604.2969"/><ellipse cx="162.5" cy="617.9453" fill="none" rx="3" ry="3" style="stroke:#038048;stroke-width:1;"/><text fill="#000000" font-family="sans-serif" font-size="14" lengthAdjust="spacing" textLength="186.3408" x="171.5" y="621.292">event_id : BIGINT &#171;PK, FK&#187;</text><ellipse cx="162.5" cy="634.2422" fill="none" rx="3" ry="3" style="stroke:#038048;stroke-width:1;"/><text fill="#000000" font-family="sans-serif" font-size="14" lengthAdjust="spacing" textLength="250.2705" x="171.5" y="637.5889">organizer_user_id : BIGINT &#171;PK, FK&#187;</text><line style="stroke:#181818;stroke-width:1;" x1="152.5" x2="426.7705" y1="644.8906" y2="644.8906"/><text fill="#000000" font-family="sans-serif" font-size="14" lengthAdjust="spacing" textLength="142.7275" x="157.5" y="661.8857">access_level : ENUM</text><text fill="#000000" font-family="sans-serif" font-size="14" lengthAdjust="spacing" textLength="149.8984" x="157.5" y="678.1826">added_at : DATETIME</text></g><!--class SHIFTS--><g class="entity" data-entity="SHIFTS" data-source-line="69" data-uid="ent0008" id="entity_SHIFTS"><rect fill="#F1F1F1" height="188.9688" rx="2.5" ry="2.5" style="stroke:#181818;stroke-width:0.5;" width="176.2607" x="637.5" y="537"/><text fill="#000000" font-family="sans-serif" font-size="14" lengthAdjust="spacing" textLength="49.0342" x="701.1133" y="554.9951">SHIFTS</text><line style="stroke:#181818;stroke-width:0.5;" x1="638.5" x2="812.7607" y1="563.2969" y2="563.2969"/><ellipse cx="648.5" cy="576.9453" fill="none" rx="3" ry="3" style="stroke:#038048;stroke-width:1;"/><text fill="#000000" font-family="sans-serif" font-size="14" lengthAdjust="spacing" textLength="113.333" x="657.5" y="580.292">id : BIGINT &#171;PK&#187;</text><line style="stroke:#181818;stroke-width:1;" x1="638.5" x2="812.7607" y1="587.5938" y2="587.5938"/><text fill="#000000" font-family="sans-serif" font-size="14" lengthAdjust="spacing" textLength="159.8174" x="643.5" y="604.5889">event_id : BIGINT &#171;FK&#187;</text><text fill="#000000" font-family="sans-serif" font-size="14" lengthAdjust="spacing" textLength="120.415" x="643.5" y="620.8857">shift_date : DATE</text><text fill="#000000" font-family="sans-serif" font-size="14" lengthAdjust="spacing" textLength="118.46" x="643.5" y="637.1826">time_start : TIME</text><text fill="#000000" font-family="sans-serif" font-size="14" lengthAdjust="spacing" textLength="112.2256" x="643.5" y="653.4795">time_end : TIME</text><text fill="#000000" font-family="sans-serif" font-size="14" lengthAdjust="spacing" textLength="95.874" x="643.5" y="669.7764">capacity : INT</text><text fill="#000000" font-family="sans-serif" font-size="14" lengthAdjust="spacing" textLength="98.2803" x="643.5" y="686.0732">status : ENUM</text><text fill="#000000" font-family="sans-serif" font-size="14" lengthAdjust="spacing" textLength="159.6807" x="643.5" y="702.3701">created_at : DATETIME</text><text fill="#000000" font-family="sans-serif" font-size="14" lengthAdjust="spacing" textLength="164.2607" x="643.5" y="718.667">updated_at : DATETIME</text></g><!--class REGISTRATIONS--><g class="entity" data-entity="REGISTRATIONS" data-source-line="82" data-uid="ent0009" id="entity_REGISTRATIONS"><rect fill="#F1F1F1" height="156.375" rx="2.5" ry="2.5" style="stroke:#181818;stroke-width:0.5;" width="236.4375" x="157.5" y="819"/><text fill="#000000" font-family="sans-serif" font-size="14" lengthAdjust="spacing" textLength="113.3535" x="219.042" y="836.9951">REGISTRATIONS</text><line style="stroke:#181818;stroke-width:0.5;" x1="158.5" x2="392.9375" y1="845.2969" y2="845.2969"/><ellipse cx="168.5" cy="858.9453" fill="none" rx="3" ry="3" style="stroke:#038048;stroke-width:1;"/><text fill="#000000" font-family="sans-serif" font-size="14" lengthAdjust="spacing" textLength="113.333" x="177.5" y="862.292">id : BIGINT &#171;PK&#187;</text><line style="stroke:#181818;stroke-width:1;" x1="158.5" x2="392.9375" y1="869.5938" y2="869.5938"/><text fill="#000000" font-family="sans-serif" font-size="14" lengthAdjust="spacing" textLength="150.418" x="163.5" y="886.5889">shift_id : BIGINT &#171;FK&#187;</text><text fill="#000000" font-family="sans-serif" font-size="14" lengthAdjust="spacing" textLength="224.4375" x="163.5" y="902.8857">volunteer_user_id : BIGINT &#171;FK&#187;</text><text fill="#000000" font-family="sans-serif" font-size="14" lengthAdjust="spacing" textLength="98.2803" x="163.5" y="919.1826">status : ENUM</text><text fill="#000000" font-family="sans-serif" font-size="14" lengthAdjust="spacing" textLength="177.8438" x="163.5" y="935.4795">registered_at : DATETIME</text><text fill="#000000" font-family="sans-serif" font-size="14" lengthAdjust="spacing" textLength="168.8955" x="163.5" y="951.7764">canceled_at : DATETIME</text><text fill="#000000" font-family="sans-serif" font-size="14" lengthAdjust="spacing" textLength="182.1367" x="163.5" y="968.0732">cancel_reason : VARCHAR</text></g><!--class EMAIL_NOTIFICATIONS--><g class="entity" data-entity="EMAIL_NOTIFICATIONS" data-source-line="93" data-uid="ent0010" id="entity_EMAIL_NOTIFICATIONS"><rect fill="#F1F1F1" height="221.5625" rx="2.5" ry="2.5" style="stroke:#181818;stroke-width:0.5;" width="171.8174" x="780.5" y="786"/><text fill="#000000" font-family="sans-serif" font-size="14" lengthAdjust="spacing" textLength="158.1973" x="787.3101" y="803.9951">EMAIL_NOTIFICATIONS</text><line style="stroke:#181818;stroke-width:0.5;" x1="781.5" x2="951.3174" y1="812.2969" y2="812.2969"/><ellipse cx="791.5" cy="825.9453" fill="none" rx="3" ry="3" style="stroke:#038048;stroke-width:1;"/><text fill="#000000" font-family="sans-serif" font-size="14" lengthAdjust="spacing" textLength="113.333" x="800.5" y="829.292">id : BIGINT &#171;PK&#187;</text><line style="stroke:#181818;stroke-width:1;" x1="781.5" x2="951.3174" y1="836.5938" y2="836.5938"/><text fill="#000000" font-family="sans-serif" font-size="14" lengthAdjust="spacing" textLength="150.4795" x="786.5" y="853.5889">user_id : BIGINT &#171;FK&#187;</text><text fill="#000000" font-family="sans-serif" font-size="14" lengthAdjust="spacing" textLength="159.8174" x="786.5" y="869.8857">event_id : BIGINT &#171;FK&#187;</text><text fill="#000000" font-family="sans-serif" font-size="14" lengthAdjust="spacing" textLength="150.418" x="786.5" y="886.1826">shift_id : BIGINT &#171;FK&#187;</text><text fill="#000000" font-family="sans-serif" font-size="14" lengthAdjust="spacing" textLength="86.5361" x="786.5" y="902.4795">type : ENUM</text><text fill="#000000" font-family="sans-serif" font-size="14" lengthAdjust="spacing" textLength="141.7705" x="786.5" y="918.7764">email_to : VARCHAR</text><text fill="#000000" font-family="sans-serif" font-size="14" lengthAdjust="spacing" textLength="132.8496" x="786.5" y="935.0732">subject : VARCHAR</text><text fill="#000000" font-family="sans-serif" font-size="14" lengthAdjust="spacing" textLength="138.9473" x="786.5" y="951.3701">send_status : ENUM</text><text fill="#000000" font-family="sans-serif" font-size="14" lengthAdjust="spacing" textLength="153.5215" x="786.5" y="967.667">error_message : TEXT</text><text fill="#000000" font-family="sans-serif" font-size="14" lengthAdjust="spacing" textLength="159.6807" x="786.5" y="983.9639">created_at : DATETIME</text><text fill="#000000" font-family="sans-serif" font-size="14" lengthAdjust="spacing" textLength="136.3154" x="786.5" y="1000.2607">sent_at : DATETIME</text></g><!--class AUDIT_LOG--><g class="entity" data-entity="AUDIT_LOG" data-source-line="108" data-uid="ent0011" id="entity_AUDIT_LOG"><rect fill="#F1F1F1" height="188.9688" rx="2.5" ry="2.5" style="stroke:#181818;stroke-width:0.5;" width="205.5664" x="245.5" y="255.5"/><text fill="#000000" font-family="sans-serif" font-size="14" lengthAdjust="spacing" textLength="79.9531" x="308.3066" y="273.4951">AUDIT_LOG</text><line style="stroke:#181818;stroke-width:0.5;" x1="246.5" x2="450.0664" y1="281.7969" y2="281.7969"/><ellipse cx="256.5" cy="295.4453" fill="none" rx="3" ry="3" style="stroke:#038048;stroke-width:1;"/><text fill="#000000" font-family="sans-serif" font-size="14" lengthAdjust="spacing" textLength="113.333" x="265.5" y="298.792">id : BIGINT &#171;PK&#187;</text><line style="stroke:#181818;stroke-width:1;" x1="246.5" x2="450.0664" y1="306.0938" y2="306.0938"/><text fill="#000000" font-family="sans-serif" font-size="14" lengthAdjust="spacing" textLength="193.5664" x="251.5" y="323.0889">actor_user_id : BIGINT &#171;FK&#187;</text><text fill="#000000" font-family="sans-serif" font-size="14" lengthAdjust="spacing" textLength="125.2002" x="251.5" y="339.3857">action : VARCHAR</text><text fill="#000000" font-family="sans-serif" font-size="14" lengthAdjust="spacing" textLength="161.0205" x="251.5" y="355.6826">entity_type : VARCHAR</text><text fill="#000000" font-family="sans-serif" font-size="14" lengthAdjust="spacing" textLength="121.7686" x="251.5" y="371.9795">entity_id : BIGINT</text><text fill="#000000" font-family="sans-serif" font-size="14" lengthAdjust="spacing" textLength="131.4209" x="251.5" y="388.2764">details_json : TEXT</text><text fill="#000000" font-family="sans-serif" font-size="14" lengthAdjust="spacing" textLength="94.8828" x="251.5" y="404.5732">ip : VARCHAR</text><text fill="#000000" font-family="sans-serif" font-size="14" lengthAdjust="spacing" textLength="160.084" x="251.5" y="420.8701">user_agent : VARCHAR</text><text fill="#000000" font-family="sans-serif" font-size="14" lengthAdjust="spacing" textLength="159.6807" x="251.5" y="437.167">created_at : DATETIME</text></g><!--link USERS to VOLUNTEER_PROFILES--><g class="link" data-entity-1="USERS" data-entity-2="VOLUNTEER_PROFILES" data-source-line="123" data-uid="lnk12" id="link_USERS_VOLUNTEER_PROFILES"><path codeLine="123" d="M239.76,59 C174.08,59 108.5,59 108.5,59 C108.5,59 108.5,177.44 108.5,263.63" fill="none" id="USERS-VOLUNTEER_PROFILES" style="stroke:#181818;stroke-width:1;"/><line style="stroke:#181818;stroke-width:1;" x1="243.76" x2="243.76" y1="55" y2="63"/><line style="stroke:#181818;stroke-width:1;" x1="240.76" x2="240.76" y1="55" y2="63"/><line style="stroke:#181818;stroke-width:1;" x1="239.76" x2="247.76" y1="59" y2="59"/><line style="stroke:#181818;stroke-width:1;" x1="112.5" x2="104.5" y1="267.63" y2="267.63"/><line style="stroke:#181818;stroke-width:1;" x1="112.5" x2="104.5" y1="264.63" y2="264.63"/><line style="stroke:#181818;stroke-width:1;" x1="108.5" x2="108.5" y1="263.63" y2="271.63"/></g><!--link USERS to ORGANIZER_PROFILES--><g class="link" data-entity-1="USERS" data-entity-2="ORGANIZER_PROFILES" data-source-line="124" data-uid="lnk13" id="link_USERS_ORGANIZER_PROFILES"><path codeLine="124" d="M457.24,147 C522.92,147 588.5,147 588.5,147 C588.5,147 588.5,200.15 588.5,255.32" fill="none" id="USERS-ORGANIZER_PROFILES" style="stroke:#181818;stroke-width:1;"/><line style="stroke:#181818;stroke-width:1;" x1="453.24" x2="453.24" y1="151" y2="143"/><line style="stroke:#181818;stroke-width:1;" x1="456.24" x2="456.24" y1="151" y2="143"/><line style="stroke:#181818;stroke-width:1;" x1="457.24" x2="449.24" y1="147" y2="147"/><line style="stroke:#181818;stroke-width:1;" x1="592.5" x2="584.5" y1="259.32" y2="259.32"/><line style="stroke:#181818;stroke-width:1;" x1="592.5" x2="584.5" y1="256.32" y2="256.32"/><line style="stroke:#181818;stroke-width:1;" x1="588.5" x2="588.5" y1="255.32" y2="263.32"/></g><!--link EVENT_CATEGORIES to EVENTS--><g class="link" data-entity-1="EVENT_CATEGORIES" data-entity-2="EVENTS" data-source-line="126" data-uid="lnk14" id="link_EVENT_CATEGORIES_EVENTS"><path codeLine="126" d="M825.5,130.69 C825.5,157.19 825.5,168.33 825.5,204.92" fill="none" id="EVENT_CATEGORIES-EVENTS" style="stroke:#181818;stroke-width:1;"/><line style="stroke:#181818;stroke-width:1;" x1="821.5" x2="829.5" y1="126.69" y2="126.69"/><line style="stroke:#181818;stroke-width:1;" x1="821.5" x2="829.5" y1="129.69" y2="129.69"/><line style="stroke:#181818;stroke-width:1;" x1="825.5" x2="825.5" y1="130.69" y2="122.69"/><line style="stroke:#181818;stroke-width:1;" x1="825.5" x2="831.5" y1="214.92" y2="222.92"/><line style="stroke:#181818;stroke-width:1;" x1="825.5" x2="819.5" y1="214.92" y2="222.92"/><line style="stroke:#181818;stroke-width:1;" x1="825.5" x2="825.5" y1="214.92" y2="222.92"/><ellipse cx="825.5" cy="208.92" fill="none" rx="4" ry="4" style="stroke:#181818;stroke-width:1;"/></g><!--link USERS to EVENTS--><g class="link" data-entity-1="USERS" data-entity-2="EVENTS" data-source-line="127" data-uid="lnk15" id="link_USERS_EVENTS"><path codeLine="127" d="M457.19,139 C570.74,139 731.75,139 731.75,139 C731.75,139 731.75,160.31 731.75,205" fill="none" id="USERS-EVENTS" style="stroke:#181818;stroke-width:1;"/><line style="stroke:#181818;stroke-width:1;" x1="453.19" x2="453.19" y1="143" y2="135"/><line style="stroke:#181818;stroke-width:1;" x1="456.19" x2="456.19" y1="143" y2="135"/><line style="stroke:#181818;stroke-width:1;" x1="457.19" x2="449.19" y1="139" y2="139"/><line style="stroke:#181818;stroke-width:1;" x1="731.75" x2="737.75" y1="215" y2="223"/><line style="stroke:#181818;stroke-width:1;" x1="731.75" x2="725.75" y1="215" y2="223"/><line style="stroke:#181818;stroke-width:1;" x1="731.75" x2="731.75" y1="215" y2="223"/><ellipse cx="731.75" cy="209" fill="none" rx="4" ry="4" style="stroke:#181818;stroke-width:1;"/></g><!--link EVENTS to SHIFTS--><g class="link" data-entity-1="EVENTS" data-entity-2="SHIFTS" data-source-line="129" data-uid="lnk16" id="link_EVENTS_SHIFTS"><path codeLine="129" d="M769.5,485.16 C769.5,505.27 769.5,499.75 769.5,518.94" fill="none" id="EVENTS-SHIFTS" style="stroke:#181818;stroke-width:1;"/><line style="stroke:#181818;stroke-width:1;" x1="765.5" x2="773.5" y1="481.16" y2="481.16"/><line style="stroke:#181818;stroke-width:1;" x1="765.5" x2="773.5" y1="484.16" y2="484.16"/><line style="stroke:#181818;stroke-width:1;" x1="769.5" x2="769.5" y1="485.16" y2="477.16"/><line style="stroke:#181818;stroke-width:1;" x1="769.5" x2="775.5" y1="528.94" y2="536.94"/><line style="stroke:#181818;stroke-width:1;" x1="769.5" x2="763.5" y1="528.94" y2="536.94"/><line style="stroke:#181818;stroke-width:1;" x1="769.5" x2="769.5" y1="528.94" y2="536.94"/><ellipse cx="769.5" cy="522.94" fill="none" rx="4" ry="4" style="stroke:#181818;stroke-width:1;"/></g><!--link USERS to EVENT_ORGANIZERS--><g class="link" data-entity-1="USERS" data-entity-2="EVENT_ORGANIZERS" data-source-line="131" data-uid="lnk17" id="link_USERS_EVENT_ORGANIZERS"><path codeLine="131" d="M239.96,111 C227.9,111 227.75,111 227.75,111 C227.75,111 227.75,426.77 227.75,559.76" fill="none" id="USERS-EVENT_ORGANIZERS" style="stroke:#181818;stroke-width:1;"/><line style="stroke:#181818;stroke-width:1;" x1="243.96" x2="243.96" y1="107" y2="115"/><line style="stroke:#181818;stroke-width:1;" x1="240.96" x2="240.96" y1="107" y2="115"/><line style="stroke:#181818;stroke-width:1;" x1="239.96" x2="247.96" y1="111" y2="111"/><line style="stroke:#181818;stroke-width:1;" x1="227.75" x2="233.75" y1="569.76" y2="577.76"/><line style="stroke:#181818;stroke-width:1;" x1="227.75" x2="221.75" y1="569.76" y2="577.76"/><line style="stroke:#181818;stroke-width:1;" x1="227.75" x2="227.75" y1="569.76" y2="577.76"/><ellipse cx="227.75" cy="563.76" fill="none" rx="4" ry="4" style="stroke:#181818;stroke-width:1;"/></g><!--link EVENTS to EVENT_ORGANIZERS--><g class="link" data-entity-1="EVENTS" data-entity-2="EVENT_ORGANIZERS" data-source-line="132" data-uid="lnk18" id="link_EVENTS_EVENT_ORGANIZERS"><path codeLine="132" d="M717.36,461 C574.3,461 336.5,461 336.5,461 C336.5,461 336.5,509.6 336.5,559.55" fill="none" id="EVENTS-EVENT_ORGANIZERS" style="stroke:#181818;stroke-width:1;"/><line style="stroke:#181818;stroke-width:1;" x1="721.36" x2="721.36" y1="457" y2="465"/><line style="stroke:#181818;stroke-width:1;" x1="718.36" x2="718.36" y1="457" y2="465"/><line style="stroke:#181818;stroke-width:1;" x1="717.36" x2="725.36" y1="461" y2="461"/><line style="stroke:#181818;stroke-width:1;" x1="336.5" x2="342.5" y1="569.55" y2="577.55"/><line style="stroke:#181818;stroke-width:1;" x1="336.5" x2="330.5" y1="569.55" y2="577.55"/><line style="stroke:#181818;stroke-width:1;" x1="336.5" x2="336.5" y1="569.55" y2="577.55"/><ellipse cx="336.5" cy="563.55" fill="none" rx="4" ry="4" style="stroke:#181818;stroke-width:1;"/></g><!--link USERS to REGISTRATIONS--><g class="link" data-entity-1="USERS" data-entity-2="REGISTRATIONS" data-source-line="134" data-uid="lnk19" id="link_USERS_REGISTRATIONS"><path codeLine="134" d="M457.04,155 C469.1,155 469.25,155 469.25,155 C469.25,155 469.25,898 469.25,898 C469.25,898 451.96,898 411.51,898" fill="none" id="USERS-REGISTRATIONS" style="stroke:#181818;stroke-width:1;"/><line style="stroke:#181818;stroke-width:1;" x1="453.04" x2="453.04" y1="159" y2="151"/><line style="stroke:#181818;stroke-width:1;" x1="456.04" x2="456.04" y1="159" y2="151"/><line style="stroke:#181818;stroke-width:1;" x1="457.04" x2="449.04" y1="155" y2="155"/><line style="stroke:#181818;stroke-width:1;" x1="401.51" x2="393.51" y1="898" y2="904"/><line style="stroke:#181818;stroke-width:1;" x1="401.51" x2="393.51" y1="898" y2="892"/><line style="stroke:#181818;stroke-width:1;" x1="401.51" x2="393.51" y1="898" y2="898"/><ellipse cx="407.51" cy="898" fill="none" rx="4" ry="4" style="stroke:#181818;stroke-width:1;"/></g><!--link SHIFTS to REGISTRATIONS--><g class="link" data-entity-1="SHIFTS" data-entity-2="REGISTRATIONS" data-source-line="135" data-uid="lnk20" id="link_SHIFTS_REGISTRATIONS"><path codeLine="135" d="M629.4,706 C498.39,706 275.5,706 275.5,706 C275.5,706 275.5,748.01 275.5,800.76" fill="none" id="SHIFTS-REGISTRATIONS" style="stroke:#181818;stroke-width:1;"/><line style="stroke:#181818;stroke-width:1;" x1="633.4" x2="633.4" y1="702" y2="710"/><line style="stroke:#181818;stroke-width:1;" x1="630.4" x2="630.4" y1="702" y2="710"/><line style="stroke:#181818;stroke-width:1;" x1="629.4" x2="637.4" y1="706" y2="706"/><line style="stroke:#181818;stroke-width:1;" x1="275.5" x2="281.5" y1="810.76" y2="818.76"/><line style="stroke:#181818;stroke-width:1;" x1="275.5" x2="269.5" y1="810.76" y2="818.76"/><line style="stroke:#181818;stroke-width:1;" x1="275.5" x2="275.5" y1="810.76" y2="818.76"/><ellipse cx="275.5" cy="804.76" fill="none" rx="4" ry="4" style="stroke:#181818;stroke-width:1;"/></g><!--link USERS to EMAIL_NOTIFICATIONS--><g class="link" data-entity-1="USERS" data-entity-2="EMAIL_NOTIFICATIONS" data-source-line="137" data-uid="lnk21" id="link_USERS_EMAIL_NOTIFICATIONS"><path codeLine="137" d="M457,131 C625.57,131 939,131 939,131 C939,131 939,555.17 939,767.62" fill="none" id="USERS-EMAIL_NOTIFICATIONS" style="stroke:#181818;stroke-width:1;"/><line style="stroke:#181818;stroke-width:1;" x1="453" x2="453" y1="135" y2="127"/><line style="stroke:#181818;stroke-width:1;" x1="456" x2="456" y1="135" y2="127"/><line style="stroke:#181818;stroke-width:1;" x1="457" x2="449" y1="131" y2="131"/><line style="stroke:#181818;stroke-width:1;" x1="939" x2="945" y1="777.62" y2="785.62"/><line style="stroke:#181818;stroke-width:1;" x1="939" x2="933" y1="777.62" y2="785.62"/><line style="stroke:#181818;stroke-width:1;" x1="939" x2="939" y1="777.62" y2="785.62"/><ellipse cx="939" cy="771.62" fill="none" rx="4" ry="4" style="stroke:#181818;stroke-width:1;"/></g><!--link EVENTS to EMAIL_NOTIFICATIONS--><g class="link" data-entity-1="EVENTS" data-entity-2="EMAIL_NOTIFICATIONS" data-source-line="138" data-uid="lnk22" id="link_EVENTS_EMAIL_NOTIFICATIONS"><path codeLine="138" d="M869.5,485.21 C869.5,578.64 869.5,678.35 869.5,767.79" fill="none" id="EVENTS-EMAIL_NOTIFICATIONS" style="stroke:#181818;stroke-width:1;"/><line style="stroke:#181818;stroke-width:1;" x1="865.5" x2="873.5" y1="481.21" y2="481.21"/><line style="stroke:#181818;stroke-width:1;" x1="865.5" x2="873.5" y1="484.21" y2="484.21"/><line style="stroke:#181818;stroke-width:1;" x1="869.5" x2="869.5" y1="485.21" y2="477.21"/><line style="stroke:#181818;stroke-width:1;" x1="869.5" x2="875.5" y1="777.79" y2="785.79"/><line style="stroke:#181818;stroke-width:1;" x1="869.5" x2="863.5" y1="777.79" y2="785.79"/><line style="stroke:#181818;stroke-width:1;" x1="869.5" x2="869.5" y1="777.79" y2="785.79"/><ellipse cx="869.5" cy="771.79" fill="none" rx="4" ry="4" style="stroke:#181818;stroke-width:1;"/></g><!--link SHIFTS to EMAIL_NOTIFICATIONS--><g class="link" data-entity-1="SHIFTS" data-entity-2="EMAIL_NOTIFICATIONS" data-source-line="139" data-uid="lnk23" id="link_SHIFTS_EMAIL_NOTIFICATIONS"><path codeLine="139" d="M797,734.23 C797,753.59 797,748.13 797,767.99" fill="none" id="SHIFTS-EMAIL_NOTIFICATIONS" style="stroke:#181818;stroke-width:1;"/><line style="stroke:#181818;stroke-width:1;" x1="793" x2="801" y1="730.23" y2="730.23"/><line style="stroke:#181818;stroke-width:1;" x1="793" x2="801" y1="733.23" y2="733.23"/><line style="stroke:#181818;stroke-width:1;" x1="797" x2="797" y1="734.23" y2="726.23"/><line style="stroke:#181818;stroke-width:1;" x1="797" x2="803" y1="777.99" y2="785.99"/><line style="stroke:#181818;stroke-width:1;" x1="797" x2="791" y1="777.99" y2="785.99"/><line style="stroke:#181818;stroke-width:1;" x1="797" x2="797" y1="777.99" y2="785.99"/><ellipse cx="797" cy="771.99" fill="none" rx="4" ry="4" style="stroke:#181818;stroke-width:1;"/></g><!--link USERS to AUDIT_LOG--><g class="link" data-entity-1="USERS" data-entity-2="AUDIT_LOG" data-source-line="141" data-uid="lnk24" id="link_USERS_AUDIT_LOG"><path codeLine="141" d="M348.5,171.08 C348.5,199.93 348.5,206.95 348.5,237.14" fill="none" id="USERS-AUDIT_LOG" style="stroke:#181818;stroke-width:1;"/><line style="stroke:#181818;stroke-width:1;" x1="344.5" x2="352.5" y1="167.08" y2="167.08"/><line style="stroke:#181818;stroke-width:1;" x1="344.5" x2="352.5" y1="170.08" y2="170.08"/><line style="stroke:#181818;stroke-width:1;" x1="348.5" x2="348.5" y1="171.08" y2="163.08"/><line style="stroke:#181818;stroke-width:1;" x1="348.5" x2="354.5" y1="247.14" y2="255.14"/><line style="stroke:#181818;stroke-width:1;" x1="348.5" x2="342.5" y1="247.14" y2="255.14"/><line style="stroke:#181818;stroke-width:1;" x1="348.5" x2="348.5" y1="247.14" y2="255.14"/><ellipse cx="348.5" cy="241.14" fill="none" rx="4" ry="4" style="stroke:#181818;stroke-width:1;"/></g><!--SRC=[hLRHRjCm57tFL-GDqEWFe6bI6MaNqQPJcax0Y-KwNklDZOFj39ML1xw0R-0JGA2D5_Y5x8-uQT8cJjArGhnKoZssxpdt7bztpa9g4oO9fvQwPb6C9LxOd4LKBsDg2wddmh9ef9bUsfEnuu_jMyksZrXelx1VkdtN2-pZu_FN9oSGxNJWXoumum1UTFtJiwuFw2H7OwpK1o53DCTgNYu0H0fE8U1uao5yCOKmqUmc2mMkznPIG9H8YZKD4TOGVjKDdC0TEX3dM6d4nOn5DUZJblR5Q33n0iVnqRa_wha3fz2GA2fHNSXpkrSHSvbmZYAye0RVAOEoe13u50apVbccwg9uBY9psxeoA4wcd143IEAmHLifOEJtkvxxxby423bhycTHP7nVnx7npUaCSuJ3K5Ab38I8I4DpK5FS1gcr_m1rpeNZ1UWKWFx8TvsgmPhkChLip5KxRAz72H2Q2Rb4bIn5rJO-cowhcmiGKd1JTaWLaIpMJ6Gb3PmtGPiNk82C-P8og3IMkkOY6eMrYAJl4oQ1q8tWIQGfbIgdlCQ8J9XUW7O4f-b4bRTertqvh1jRnnMbf3TPZfrMEmARuOXz13iUu4bC2FWASJYKbuJ1Re_G6f-vlVrzRQDPP5PpTbcljcOBYjPjM8-QuJO6RIWZ1CUuw6XUzlzLQj_fk-F0xmRkoDihBUVVActhZBRYR-JNE4iwOqfJsKARu8XGlXD0e5OPLgwOPzXr1yWR1MxFFJrCrsxAUvlP2gsVhQtCVEHgOLwyP7f5YJPZsSsh5ubAAIHQW5dnZ5Qkzuv-guplhcPt9w_S00r6_Nq5WI4g7kjazZRM9acU0XNI6_7ACUk9fQ4c2bsfwiXYvWkmJW-Y8xDAxSf1v1FWth7Jh-dtXo_fNNflFqs_fJ_JEplza_vEVy3l_SDd2FnwbYsqhFoVn6hLwQnMBU-pYJUVFyjgF1hPMd5RpF_A_Z9c5Mz34SqdYjMoj3BzQdiQiBdRkD1MCR9QiLhMvhMf9svPOPxVjiBCidNWNm00]--></g></svg>